<svg width="16" height="16" viewBox="0 0 16 16" fill="none" xmlns="http://www.w3.org/2000/svg">
<g clip-path="url(#clip0_880_93863)">
<path d="M15.9955 8.01431C15.9955 8.62069 15.9976 9.22706 15.9955 9.83343C15.9912 10.7875 15.6584 11.6155 14.9958 12.296C14.1117 13.2024 13.2148 14.0961 12.3106 14.9813C11.6311 15.6459 10.8021 15.9809 9.84904 15.9862C8.60025 15.9926 7.35146 15.9979 6.10373 15.9841C5.19417 15.9735 4.3885 15.6618 3.73442 15.0226C2.82592 14.1342 1.93226 13.2321 1.03754 12.331C0.536117 11.8264 0.206428 11.2222 0.0749762 10.5214C0.0325724 10.2988 0.0103104 10.0688 0.00819025 9.84085C-0.000290505 8.60903 -0.00241069 7.37826 0.00288978 6.14749C0.00713015 5.20506 0.334699 4.38031 0.989837 3.70609C1.88138 2.78911 2.78882 1.88697 3.70262 0.993308C4.28355 0.426158 4.98851 0.0996489 5.8016 0.022262C5.94154 0.00954085 6.08253 0.00106009 6.22246 0.00106009C7.41401 0 8.60555 0 9.79604 0C10.784 0 11.6353 0.34241 12.3381 1.03465C13.2106 1.89651 14.0746 2.76579 14.9417 3.634C15.5693 4.26264 15.9149 5.02379 15.9902 5.90472C16.0092 6.13158 15.9944 6.36163 15.9944 6.58955C15.9944 7.06447 15.9944 7.53833 15.9944 8.01325L15.9955 8.01431ZM8.00024 13.9805V13.9826C8.62039 13.9826 9.23949 13.9805 9.85964 13.9837C10.0929 13.9848 10.3218 13.9593 10.5201 13.8385C10.7024 13.7282 10.8805 13.5999 11.031 13.4515C11.8452 12.6501 12.6509 11.8391 13.4587 11.0313C13.518 10.972 13.5742 10.9105 13.6293 10.8479C13.8774 10.5649 13.9972 10.2341 13.9961 9.85888C13.9951 9.32247 13.9908 8.78712 13.9898 8.25071C13.9898 7.60936 13.9845 6.968 13.994 6.32558C13.9972 6.09554 13.994 5.86974 13.923 5.64924C13.8361 5.37786 13.6622 5.16478 13.465 4.96654C12.6445 4.14603 11.824 3.32552 11.0035 2.505C10.9537 2.45518 10.9017 2.40853 10.8487 2.36189C10.5498 2.10111 10.1989 1.99192 9.80558 1.99298C8.65432 1.9951 7.502 1.99298 6.35073 1.99404C6.18006 1.99404 6.00726 1.99934 5.83871 2.02584C5.49524 2.0799 5.22385 2.27072 4.98321 2.51242C4.61854 2.88028 4.25069 3.24707 3.88389 3.61386C3.41215 4.08666 2.93935 4.55946 2.46655 5.03121C2.13368 5.36302 1.99375 5.76267 1.99693 6.23335C2.00435 7.42808 1.99481 8.62387 1.99481 9.81859C1.99481 9.9405 2.00859 10.0645 2.03297 10.1843C2.09658 10.5002 2.26619 10.7578 2.49199 10.9826C3.3231 11.8116 4.1521 12.6416 4.98215 13.4706C5.03198 13.5204 5.08392 13.5671 5.13693 13.6137C5.41149 13.8565 5.73164 13.9795 6.09843 13.9795C6.73131 13.9795 7.36418 13.9795 7.99812 13.9795L8.00024 13.9805Z" fill="#D82525"/>
<path d="M6.22208 10.7441C5.84786 10.7081 5.54044 10.5353 5.3581 10.1727C5.17682 9.81018 5.22453 9.46458 5.46411 9.14656C5.54574 9.03843 5.64538 8.94408 5.74185 8.84761C5.99628 8.59213 6.24964 8.33558 6.50936 8.08646C6.58251 8.0165 6.57721 7.97303 6.50936 7.90625C6.20829 7.61048 5.90723 7.31471 5.61358 7.01153C5.51393 6.9087 5.42276 6.79103 5.35598 6.66488C5.09202 6.17087 5.3581 5.66627 5.66341 5.44683C6.07366 5.15318 6.57403 5.18605 6.95142 5.54648C7.27899 5.8592 7.59808 6.18041 7.91399 6.50374C7.98607 6.57795 8.02 6.57477 8.0889 6.50374C8.40269 6.18359 8.72178 5.86875 9.04087 5.55284C9.24016 5.35566 9.4808 5.23905 9.76173 5.24859C10.1275 5.26131 10.4264 5.42033 10.6077 5.74577C10.8006 6.09137 10.7996 6.44332 10.5769 6.78043C10.5218 6.86417 10.4529 6.9405 10.3829 7.01259C10.0861 7.31259 9.78929 7.6126 9.48717 7.90625C9.41508 7.97727 9.42144 8.01438 9.49141 8.08222C9.80307 8.38541 10.1094 8.69496 10.4158 9.0045C10.6204 9.21228 10.7572 9.45822 10.7444 9.75505C10.7275 10.1558 10.5377 10.4568 10.173 10.6349C9.81473 10.8098 9.47232 10.7643 9.15748 10.53C9.04193 10.4441 8.94122 10.337 8.83839 10.2353C8.58503 9.98509 8.33272 9.73385 8.08466 9.47837C8.02 9.41264 7.98077 9.4137 7.91611 9.47837C7.60762 9.79109 7.29383 10.0985 6.98216 10.4091C6.77757 10.6137 6.5348 10.7303 6.22208 10.7409V10.7441Z" fill="#D82525"/>
</g>
<defs>
<clipPath id="clip0_880_93863">
<rect width="16" height="15.9915" fill="white"/>
</clipPath>
</defs>
</svg>
