<svg width="23" height="23" viewBox="0 0 23 23" fill="none" xmlns="http://www.w3.org/2000/svg">
<path d="M11.7524 3.0014C7.21342 2.91743 3.51743 6.61342 3.60141 11.1523C3.68113 15.4298 7.1709 18.9196 11.4483 18.9993C15.9873 19.0833 19.6833 15.3873 19.5993 10.8494C19.5196 6.5709 16.0298 3.08113 11.7524 3.0014ZM8.24132 5.8013C8.65163 5.53449 9.09596 5.31551 9.5658 5.15181C9.64446 5.12418 9.73269 5.14544 9.79221 5.20496L17.3968 12.8085C17.4563 12.868 17.4776 12.9562 17.4499 13.0349C17.2862 13.5047 17.0673 13.948 16.8005 14.3594C16.7239 14.4763 16.5592 14.4944 16.4603 14.3955L8.20412 6.14145C8.10526 6.04259 8.12333 5.87783 8.24026 5.8013H8.24132ZM17.3426 10.1999L12.4008 5.25811C12.2498 5.10717 12.3816 4.85312 12.5921 4.88713C15.2145 5.31126 17.2905 7.3862 17.7136 10.0086C17.7476 10.219 17.4935 10.3509 17.3426 10.1999ZM6.89134 7.38408L15.2166 15.7093C15.3123 15.805 15.2985 15.9645 15.1879 16.0431C14.7531 16.3535 14.2769 16.6086 13.7688 16.7989C13.6891 16.8287 13.5988 16.8085 13.5382 16.7479L5.8528 9.06252C5.79221 9.00193 5.77202 8.91158 5.80178 8.83186C5.99205 8.32375 6.24823 7.84754 6.55756 7.41278C6.63622 7.30223 6.79567 7.28841 6.89134 7.38408ZM5.82942 11.5945L11.0051 16.7702C11.1518 16.9169 11.0317 17.1678 10.8265 17.1422C8.02979 16.7925 5.8071 14.5698 5.45738 11.7731C5.43186 11.568 5.68379 11.4479 5.82942 11.5945Z" fill="#474747"/>
</svg>
