<svg width="17" height="17" viewBox="0 0 17 17" fill="none" xmlns="http://www.w3.org/2000/svg">
<g clip-path="url(#clip0_880_93660)">
<path d="M8.01918 10.6704C7.59715 10.6805 7.17737 10.5391 6.84359 10.2178C6.32651 9.72105 5.81962 9.21303 5.33309 8.68577C5.02646 8.35312 4.98347 7.94466 5.18487 7.53394C5.50168 6.88787 6.30388 6.73739 6.84585 7.21826C7.05631 7.40495 7.25318 7.60635 7.45345 7.80323C7.60733 7.95371 7.76121 8.10533 7.90943 8.2626C7.97619 8.33275 8.01918 8.33275 8.08933 8.2626C8.92888 7.41853 9.77295 6.57785 10.6125 5.73378C10.7879 5.55728 10.9768 5.41019 11.2246 5.35701C11.7836 5.23594 12.3323 5.5652 12.4862 6.12414C12.5858 6.48507 12.5066 6.8132 12.2622 7.0938C12.1332 7.24202 11.9895 7.3778 11.8503 7.51697C11.0187 8.34972 10.1871 9.18248 9.35544 10.0152C9.30905 10.0616 9.26266 10.108 9.21514 10.1533C8.85194 10.495 8.55663 10.6274 8.01918 10.6715V10.6704Z" fill="#549C27"/>
<path d="M0.803958 3.39308C0.803958 3.16792 0.803958 2.94276 0.803958 2.7176C0.803958 1.37681 1.73402 0.271376 3.0567 0.0428206C3.19926 0.0179284 3.34522 0.00774525 3.49005 0.00661379C4.00599 0.00208794 4.52194 0.00435086 5.03676 0.00548233C5.67716 0.00661379 6.15577 0.503325 6.13314 1.14034C6.1173 1.58048 5.73939 2.01722 5.27663 2.12132C5.17706 2.14394 5.07296 2.15413 4.97113 2.15526C4.48347 2.15865 3.99581 2.15526 3.50815 2.15752C3.17098 2.15752 2.95487 2.37363 2.95487 2.71081C2.95487 3.20752 2.95487 3.70536 2.95487 4.20207C2.9526 4.90924 2.49662 5.30977 1.8879 5.34372C1.49528 5.36635 1.19205 5.15024 0.979335 4.82325C0.8594 4.63769 0.801695 4.43176 0.803958 4.20999C0.806221 3.93844 0.803958 3.66576 0.803958 3.39421V3.39308Z" fill="#549C27"/>
<path d="M0.803416 12.587C0.803416 12.3109 0.803416 12.0337 0.803416 11.7576C0.805679 11.1229 1.33294 10.6295 1.96316 10.6725C2.39651 10.702 2.82194 11.0844 2.92151 11.5404C2.94188 11.6354 2.95206 11.735 2.95319 11.8323C2.95659 12.338 2.95319 12.8449 2.95432 13.3507C2.95432 13.6336 3.16478 13.8497 3.44877 13.8519C3.97377 13.8553 4.49877 13.8429 5.02377 13.8565C5.46164 13.8678 5.81013 14.0567 6.01606 14.4584C6.334 15.0818 5.98664 15.8139 5.29758 15.9723C5.20706 15.9927 5.11202 16.0028 5.01924 16.0028C4.51348 16.0062 4.00658 16.0051 3.50082 16.004C2.24037 16.004 1.1553 15.1441 0.875829 13.9164C0.830571 13.7173 0.815862 13.5091 0.805679 13.3043C0.794364 13.0656 0.803416 12.8268 0.803416 12.587Z" fill="#549C27"/>
<path d="M16.7968 3.43597C16.7968 3.71205 16.7991 3.98925 16.7968 4.26533C16.79 4.86614 16.3058 5.34361 15.7084 5.34135C15.266 5.33909 14.8247 4.98834 14.7093 4.53123C14.6719 4.383 14.6527 4.22686 14.6504 4.07411C14.6425 3.61474 14.647 3.15537 14.6482 2.69599C14.6482 2.5308 14.5859 2.39729 14.466 2.28527C14.3732 2.19815 14.268 2.15402 14.1368 2.15516C13.6072 2.15855 13.0777 2.15968 12.5482 2.15516C12.0594 2.15063 11.6147 1.79648 11.4982 1.32919C11.3556 0.755537 11.7313 0.16944 12.3298 0.0359277C12.4203 0.0155614 12.5154 0.00537826 12.6082 0.00537826C13.1241 0.00198388 13.6389 -0.00480489 14.1549 0.00537826C15.4447 0.0325333 16.4891 0.934308 16.7357 2.1461C16.7776 2.3509 16.7866 2.56361 16.7957 2.77407C16.8059 2.99357 16.798 3.2142 16.798 3.43484L16.7968 3.43597Z" fill="#549C27"/>
<path d="M16.7957 12.5869C16.7957 12.8211 16.7957 13.0553 16.7957 13.2907C16.7957 14.5172 16.0184 15.5604 14.8417 15.8919C14.6064 15.9587 14.3541 15.9903 14.1085 15.9971C13.5892 16.013 13.0676 16.0039 12.5482 16.0017C11.9259 15.9994 11.4473 15.5015 11.4666 14.8804C11.4813 14.4278 11.8614 13.9899 12.3401 13.8836C12.4351 13.8621 12.5347 13.853 12.632 13.8519C13.1332 13.8496 13.6356 13.8383 14.1368 13.8575C14.4084 13.8677 14.6607 13.6018 14.6505 13.3461C14.6301 12.8166 14.6403 12.2871 14.646 11.7564C14.6528 11.1341 15.2162 10.6216 15.8351 10.6691C16.2628 10.7019 16.6543 11.0481 16.7618 11.4928C16.7833 11.5833 16.7935 11.6772 16.7946 11.77C16.7991 12.0415 16.7957 12.3142 16.7957 12.5858V12.5869Z" fill="#549C27"/>
</g>
<defs>
<clipPath id="clip0_880_93660">
<rect width="16" height="16.0079" fill="white" transform="translate(0.799988)"/>
</clipPath>
</defs>
</svg>
