<svg width="16" height="16" viewBox="0 0 16 16" fill="none" xmlns="http://www.w3.org/2000/svg">
<path id="Vector" d="M4.68672 0.0553713C3.83552 0.0955313 3.25408 0.231851 2.74608 0.430891C2.22016 0.635851 1.7744 0.910731 1.33088 1.35601C0.886884 1.80161 0.614244 2.24817 0.410724 2.77457C0.213764 3.28385 0.0801637 3.86561 0.0427237 4.71729C0.00528372 5.57073 -0.00319628 5.84289 0.00096372 8.01537C0.00512372 10.1875 0.0147237 10.4602 0.0553637 11.3138C0.0960037 12.1648 0.231844 12.7459 0.430884 13.2543C0.636164 13.7802 0.910724 14.2258 1.35616 14.6695C1.80144 15.1131 2.24832 15.3856 2.77504 15.5893C3.28384 15.7861 3.86576 15.92 4.71728 15.9573C5.57056 15.9949 5.84304 16.0032 8.01488 15.9991C10.1877 15.9949 10.4602 15.9853 11.3134 15.9448C12.1646 15.9042 12.7454 15.7679 13.2541 15.5693C13.78 15.3635 14.2258 15.0895 14.6693 14.644C15.1128 14.1987 15.3854 13.7519 15.589 13.2251C15.7859 12.7163 15.92 12.1344 15.957 11.2834C15.9942 10.4296 16.003 10.1568 15.9989 7.98481C15.9947 5.81249 15.985 5.54033 15.9445 4.68721C15.904 3.83553 15.7677 3.25457 15.569 2.74609C15.3634 2.22017 15.0891 1.77489 14.6438 1.33089C14.1986 0.887371 13.7517 0.614251 13.225 0.411211C12.7158 0.214251 12.1342 0.0800113 11.2827 0.0432113C10.4296 0.00513132 10.1573 -0.00318868 7.98464 0.000971317C5.81248 0.00513132 5.54016 0.0144113 4.68688 0.0553713M4.78016 14.5175C4.00016 14.4835 3.57664 14.3539 3.2944 14.2453C2.92064 14.1007 2.65392 13.9272 2.37312 13.6487C2.09296 13.369 1.91904 13.1031 1.77312 12.7301C1.66352 12.4479 1.53152 12.0248 1.49504 11.2448C1.45536 10.4016 1.44624 10.1487 1.4424 8.01249C1.43824 5.87697 1.44608 5.62385 1.48288 4.78001C1.51632 4.00065 1.64672 3.57649 1.75504 3.29457C1.89968 2.92033 2.07248 2.65409 2.35168 2.37329C2.63136 2.09265 2.89728 1.91921 3.27056 1.77329C3.55264 1.66305 3.97552 1.53217 4.7552 1.49521C5.59888 1.45521 5.85168 1.44673 7.9872 1.44257C10.1232 1.43841 10.3763 1.44593 11.2202 1.48305C11.9995 1.51697 12.4237 1.64609 12.7054 1.75521C13.0795 1.89985 13.3462 2.07217 13.6267 2.35185C13.9072 2.63153 14.0811 2.89697 14.227 3.27105C14.3371 3.55233 14.4682 3.97585 14.505 4.75521C14.5451 5.59889 14.5542 5.85185 14.5581 7.98753C14.5622 10.1237 14.5544 10.3767 14.5174 11.22C14.4835 12 14.3541 12.4237 14.2453 12.7063C14.1006 13.0797 13.9277 13.3464 13.6483 13.6272C13.369 13.9069 13.103 14.0813 12.7294 14.2272C12.448 14.3371 12.0245 14.4683 11.2453 14.5053C10.4016 14.545 10.1488 14.5541 8.01248 14.5579C5.87696 14.5621 5.62416 14.5541 4.78032 14.5175M11.3018 3.72369C11.3027 4.25345 11.7336 4.68241 12.2634 4.68145C12.7934 4.68049 13.2224 4.24993 13.2216 3.72001C13.2205 3.19025 12.7898 2.76097 12.2597 2.76193C11.7296 2.76289 11.3006 3.19377 11.3016 3.72353M3.89232 8.00785C3.89664 10.2767 5.73936 12.1119 8.00768 12.1074C10.2762 12.1029 12.1123 10.2608 12.108 7.99201C12.1035 5.72401 10.2606 3.88785 7.99184 3.89217C5.72352 3.89665 3.88784 5.73953 3.89232 8.00785ZM5.33328 8.00497C5.33072 6.53249 6.52256 5.33617 7.99472 5.33361C9.4672 5.33073 10.6637 6.52209 10.6666 7.99489C10.6694 9.46769 9.4776 10.6637 8.0048 10.6666C6.53248 10.6695 5.336 9.47793 5.33328 8.00513" fill="white"/>
</svg>
