<svg width="219" height="219" viewBox="0 0 219 219" fill="none" xmlns="http://www.w3.org/2000/svg">
<g id="Isolation_Mode">
<path id="Vector" d="M109.499 211.998C166.108 211.998 211.998 166.108 211.998 109.499C211.998 52.8904 166.108 7 109.499 7C52.8904 7 7 52.8904 7 109.499C7 166.108 52.8904 211.998 109.499 211.998Z" fill="#F5F4ED"/>
<circle id="Ellipse 15" cx="109.5" cy="109.5" r="109.5" fill="#104432"/>
<circle id="Ellipse 16" cx="109.5" cy="109.5" r="75.5" fill="#F5F4ED"/>
<path id="Vector_2" fill-rule="evenodd" clip-rule="evenodd" d="M159.414 105.074H143.252L154.666 90.7747H132.55V138.282L159.414 105.074ZM131.929 73.601H113.95V53.8779L86.5458 87.3242V70.8571L66.4648 95.3761V154.738L131.931 73.601H131.929ZM102.47 128.4L94.3315 138.449H120.374V128.4H102.47ZM111.406 117.32H120.376V106.08L111.406 117.32Z" fill="#104432"/>
<path id="Vector_3" fill-rule="evenodd" clip-rule="evenodd" d="M142.773 134.345V137.634H143.352V136.34H143.808C144.119 136.34 144.329 136.376 144.452 136.448C144.662 136.571 144.764 136.824 144.764 137.2V137.46L144.778 137.569C144.778 137.569 144.785 137.598 144.785 137.605C144.793 137.619 144.793 137.634 144.793 137.634H145.335L145.314 137.59C145.314 137.59 145.292 137.504 145.285 137.417C145.285 137.33 145.285 137.243 145.285 137.171V136.933C145.285 136.759 145.227 136.593 145.104 136.419C144.981 136.246 144.793 136.137 144.532 136.094C144.735 136.065 144.894 136.007 145.01 135.935C145.227 135.798 145.335 135.581 145.335 135.284C145.335 134.872 145.162 134.59 144.821 134.453C144.626 134.373 144.329 134.33 143.924 134.33H142.773V134.345ZM144.771 135.342C144.771 135.595 144.655 135.769 144.431 135.855C144.308 135.906 144.127 135.928 143.881 135.928H143.359V134.735H143.859C144.177 134.735 144.409 134.778 144.554 134.858C144.698 134.945 144.778 135.104 144.778 135.342H144.771ZM146.993 135.993C146.993 135.161 146.696 134.46 146.117 133.875C145.531 133.296 144.821 133 143.989 133C143.157 133 142.455 133.296 141.876 133.875C141.289 134.46 141 135.169 141 135.993C141 136.817 141.289 137.54 141.876 138.118C142.455 138.711 143.164 139 143.996 139C144.829 139 145.538 138.711 146.124 138.118C146.711 137.525 147 136.824 147 135.993H146.993ZM143.989 133.405C144.706 133.405 145.314 133.658 145.82 134.164C146.32 134.67 146.573 135.277 146.573 135.986C146.573 136.701 146.32 137.316 145.82 137.822C145.314 138.328 144.706 138.581 143.989 138.581C143.273 138.581 142.657 138.328 142.158 137.822C141.659 137.316 141.413 136.701 141.413 135.986C141.413 135.27 141.666 134.663 142.165 134.164C142.672 133.658 143.28 133.405 143.989 133.405Z" fill="#104432"/>
<path id="Vector_4" d="M16.8343 108.877C15.6798 108.844 14.786 107.886 14.8172 106.742C14.8502 105.61 15.7973 104.716 16.9518 104.749C18.0732 104.78 18.989 105.729 18.9578 106.861C18.9248 108.005 17.9557 108.91 16.8343 108.879V108.877Z" fill="#F5F4ED"/>
<path id="Vector_5" d="M15.8036 96.0697L15.4622 98.2538L13.5645 97.9583L14.6326 91.1123L16.5304 91.4078L16.1891 93.5919L22.1137 94.5151L21.7264 96.9947L15.8018 96.0697H15.8036Z" fill="#F5F4ED"/>
<path id="Vector_6" d="M14.8574 89.994L15.4466 87.5768L18.2199 88.2522L18.6934 86.3104L15.9201 85.635L16.5093 83.2178L24.2014 85.0935L23.6122 87.5107L20.7747 86.8188L20.3012 88.7606L23.1387 89.4526L22.5495 91.8698L14.8574 89.994Z" fill="#F5F4ED"/>
<path id="Vector_7" d="M16.9258 81.8341L18.8805 75.9902L20.703 76.5996L19.5375 80.085L20.569 80.43L21.4922 77.6714L23.3038 78.2771L22.3806 81.0357L23.3919 81.3734L24.5573 77.888L26.389 78.501L24.4344 84.3449L16.9258 81.8359V81.8341Z" fill="#F5F4ED"/>
<path id="Vector_8" d="M20.41 72.1307L22.9722 66.5254L24.7195 67.3238L23.1907 70.666L24.2809 71.1653L25.4904 68.5186L27.2469 69.3225L26.0373 71.9692L28.6436 73.1603L27.6084 75.4233L20.4082 72.1307H20.41Z" fill="#F5F4ED"/>
<path id="Vector_9" d="M23.4883 65.5194L26.4763 60.1289L28.1575 61.0594L26.3753 64.275L27.3279 64.8018L28.7375 62.258L30.4077 63.183L28.9981 65.7268L29.9305 66.2444L31.7127 63.0288L33.403 63.9649L30.415 69.3554L23.4901 65.5176L23.4883 65.5194Z" fill="#F5F4ED"/>
<path id="Vector_10" d="M27.1875 59.041L28.5182 56.9395L35.2063 61.1774L33.8757 63.2789L27.1875 59.041Z" fill="#F5F4ED"/>
<path id="Vector_11" d="M29.2246 55.8068L30.6727 53.7842L35.5383 57.2696L37.6784 54.2816L39.2495 55.4067L35.6613 60.4154L29.2264 55.8049L29.2246 55.8068Z" fill="#F5F4ED"/>
<path id="Vector_12" d="M33.4824 49.932L35.7528 47.2413C36.9201 45.8574 38.5022 45.1893 39.9705 46.4264L41.7619 47.9369C43.3403 49.2694 42.9567 50.98 41.8188 52.329L39.5337 55.0362L33.4843 49.9301L33.4824 49.932ZM40.2183 51.2296C40.6625 50.7028 40.4716 50.1357 40.099 49.8218L38.5206 48.4894C38.0709 48.1094 37.5093 48.1737 37.0926 48.6655L36.5695 49.2859L39.6585 51.8922L40.2165 51.2296H40.2183Z" fill="#F5F4ED"/>
<path id="Vector_13" d="M44.0262 45.5925L42.444 43.9241C41.062 42.465 41.6915 40.6296 42.9726 39.4146C44.1087 38.3372 45.9753 37.5462 47.2895 38.9319L47.5189 39.1742L45.8267 40.7783L45.6964 40.6406C45.2687 40.1891 44.6924 40.3231 44.329 40.6663C43.8701 41.1013 43.7674 41.6721 44.2262 42.1567L45.8377 43.8562C46.2965 44.3389 46.8673 44.4252 47.3666 43.9517C47.8254 43.5167 47.9172 43.0633 47.4895 42.6118L47.3445 42.4595L46.5058 43.2542L45.3972 42.0851L47.9759 39.6403L49.3433 41.083C50.6354 42.4448 49.7617 44.2508 48.6256 45.3282C47.3372 46.5506 45.5293 47.1783 44.0243 45.5907L44.0262 45.5925Z" fill="#F5F4ED"/>
<path id="Vector_14" d="M49.5792 40.3249L46.4297 36.388L48.3715 34.8334L51.466 38.7006C51.9652 39.3246 52.5654 39.3283 53.0426 38.9465C53.5014 38.5794 53.562 37.9774 53.0958 37.3956L50.0014 33.5285L51.8826 32.0234L54.9973 35.9163C56.2949 37.5369 55.6103 39.365 54.1438 40.5378C52.4534 41.8905 50.875 41.9437 49.5774 40.3231L49.5792 40.3249Z" fill="#F5F4ED"/>
<path id="Vector_15" d="M52.9941 31.2804L55.0296 29.8506L59.5777 36.3295L57.5422 37.7593L52.9941 31.2804Z" fill="#F5F4ED"/>
<path id="Vector_16" d="M56.1289 29.0536L59.1279 27.2127C60.6697 26.2656 62.3821 26.1261 63.3879 27.7633L64.6139 29.7602C65.695 31.5203 64.7938 33.0253 63.2888 33.9485L60.2695 35.8023L56.1289 29.0554V29.0536ZM62.1178 32.3995C62.7051 32.0397 62.7014 31.4414 62.4463 31.0248L61.3653 29.2646C61.0569 28.7636 60.5045 28.6461 59.9557 28.9838L59.2656 29.4078L61.38 32.8528L62.1178 32.3995Z" fill="#F5F4ED"/>
<path id="Vector_17" d="M63.0664 24.8789L68.5634 22.0928L69.4315 23.8052L66.1535 25.4681L66.6454 26.439L69.2406 25.123L70.1051 26.8262L67.5099 28.1422L67.9926 29.0929L71.2706 27.4301L72.1442 29.1535L66.6472 31.9396L63.0664 24.8789Z" fill="#F5F4ED"/>
<path id="Vector_18" d="M74.8278 21.5348L72.7593 22.3148L72.082 20.518L78.5646 18.0732L79.2419 19.8701L77.1734 20.6501L79.2896 26.2609L76.9421 27.1456L74.8259 21.5348H74.8278Z" fill="#F5F4ED"/>
<path id="Vector_19" d="M80.7526 22.5933L80.1946 20.6404C79.6055 18.5793 80.9582 17.2119 82.7201 16.709C84.4601 16.2116 86.3689 16.4631 87.0058 18.6949L87.5601 20.6386C88.1823 22.8172 86.6864 24.0873 84.9997 24.5682C83.2487 25.0692 81.3932 24.8361 80.7526 22.5951V22.5933ZM85.163 21.3801L84.5721 19.3098C84.3775 18.627 83.8085 18.4196 83.2763 18.5719C82.6357 18.7555 82.3879 19.1831 82.5862 19.8769L83.1661 21.905C83.3644 22.5988 83.8159 22.8851 84.4784 22.6961C85.0878 22.5217 85.3484 22.0206 85.1649 21.3801H85.163Z" fill="#F5F4ED"/>
<path id="Vector_20" d="M92.2952 14.6058L95.1547 14.1396L99.0164 21.5418L96.5515 21.9437L95.9752 20.7544L93.3781 21.1784L93.2092 22.4888L90.9297 22.8596L92.2952 14.604V14.6058ZM95.1437 19.0346L93.9856 16.6248L93.9526 16.6303L93.6204 19.2824L95.1437 19.0346Z" fill="#F5F4ED"/>
<path id="Vector_21" d="M98.7109 13.648L102.497 13.3653C104.601 13.2075 105.555 14.3399 105.652 15.6577C105.726 16.6323 105.351 17.5849 104.412 18.1227L106.298 21.0207L103.575 21.2245L102.106 18.7063L101.585 18.7449L101.78 21.3584L99.3001 21.5438L98.7109 13.648ZM102.433 16.9774C103.009 16.9352 103.288 16.502 103.255 16.0468C103.222 15.6155 102.914 15.2044 102.316 15.2484L101.33 15.3219L101.459 17.049L102.433 16.9755V16.9774Z" fill="#F5F4ED"/>
<path id="Vector_22" d="M109.051 13.1025L111.949 13.1484L114.441 21.1177L111.943 21.0773L111.585 19.8054L108.955 19.7632L108.557 21.0222L106.248 20.9855L109.051 13.1025ZM111.071 17.9663L110.357 15.3894H110.324L109.528 17.9406L111.071 17.9663Z" fill="#F5F4ED"/>
<path id="Vector_23" d="M115.507 13.2694L119.431 13.6512C121.399 13.8439 122.135 15.2094 122.006 16.5236C121.872 17.8946 120.951 19.2326 118.906 19.0325L117.458 18.8912L117.214 21.3892L114.738 21.1469L115.507 13.2676V13.2694ZM118.616 17.188C119.191 17.2449 119.541 16.8539 119.586 16.4116C119.628 15.9803 119.393 15.5233 118.796 15.4645L117.802 15.3673L117.633 17.0907L118.616 17.1861V17.188Z" fill="#F5F4ED"/>
<path id="Vector_24" d="M124.976 14.373L127.828 14.8833L129.014 23.148L126.554 22.7094L126.406 21.3971L123.816 20.9346L123.221 22.1147L120.947 21.7091L124.976 14.3749V14.373ZM126.193 19.4974L125.901 16.8398L125.868 16.8343L124.673 19.2258L126.193 19.4974Z" fill="#F5F4ED"/>
<path id="Vector_25" d="M131.357 15.5967L133.755 16.2501L133.005 19.0032L134.934 19.5299L135.684 16.7768L138.083 17.4302L136 25.0673L133.601 24.4139L134.37 21.5966L132.441 21.0716L131.672 23.889L129.273 23.2356L131.357 15.5985V15.5967Z" fill="#F5F4ED"/>
<path id="Vector_26" d="M137.56 22.4889L138.263 20.5819C139.003 18.5704 140.903 18.2639 142.622 18.8971C144.32 19.5229 145.713 20.8517 144.911 23.0304L144.214 24.9263C143.432 27.0517 141.473 27.1949 139.827 26.5892C138.118 25.9596 136.756 24.6767 137.562 22.4889H137.56ZM141.839 24.1114L142.584 22.0906C142.83 21.4244 142.494 20.9215 141.973 20.7288C141.347 20.4994 140.895 20.6994 140.646 21.3767L139.917 23.3571C139.667 24.0343 139.864 24.5317 140.51 24.7703C141.104 24.9887 141.611 24.7373 141.84 24.1132L141.839 24.1114Z" fill="#F5F4ED"/>
<path id="Vector_27" d="M147.067 20.7529L152.656 23.3463L151.847 25.0881L148.514 23.5409L148.055 24.5283L150.694 25.7525L149.89 27.4851L147.251 26.2609L146.803 27.2282L150.136 28.7754L149.323 30.5282L143.734 27.9348L147.067 20.7548V20.7529Z" fill="#F5F4ED"/>
<path id="Vector_28" d="M156.366 25.3085L160.352 27.7275C161.708 28.5516 161.824 29.7116 161.283 30.6036C160.879 31.268 160.101 31.7819 159.222 31.5598L159.205 31.5892C159.835 32.2444 159.851 33.1364 159.442 33.81C158.86 34.7681 157.632 35.3352 156.276 34.5111L152.262 32.0737L156.369 25.3066L156.366 25.3085ZM156.454 32.439C156.872 32.6922 157.239 32.5142 157.412 32.2279C157.584 31.9434 157.494 31.5763 157.078 31.323L156.006 30.6715L155.343 31.7635L156.454 32.4371V32.439ZM157.99 29.8639C158.427 30.1282 158.785 29.9447 158.965 29.6492C159.115 29.4032 159.064 29.06 158.654 28.8122L157.544 28.1386L156.9 29.2013L157.992 29.8639H157.99Z" fill="#F5F4ED"/>
<path id="Vector_29" d="M165.1 30.8798L167.438 32.5922L164.865 40.5357L162.85 39.0583L163.294 37.8139L161.17 36.2575L160.117 37.0558L158.254 35.6903L165.1 30.8779V30.8798ZM163.936 36.017L164.843 33.5025L164.815 33.4823L162.69 35.1048L163.934 36.017H163.936Z" fill="#F5F4ED"/>
<path id="Vector_30" d="M165.277 39.9339L167.304 39.4016C167.434 40.0312 167.775 40.8883 168.361 41.3985C168.654 41.6537 169.106 41.9455 169.356 41.661C169.603 41.3765 169.427 41.1049 169.209 40.7818L168.41 39.5687C167.788 38.6271 167.713 37.5461 168.473 36.6761C169.436 35.5712 171.196 35.428 172.694 36.7348C173.799 37.6984 174.173 38.35 174.502 39.3429L172.443 39.7118C172.344 39.1832 171.921 38.5353 171.562 38.2215C171.176 37.8856 170.82 37.7204 170.578 37.9976C170.338 38.2729 170.626 38.5849 170.951 39.0731L171.6 40.0679C172.347 41.2058 172.34 42.2446 171.646 43.0394C170.339 44.537 168.487 43.9075 167.331 42.9017C166.335 42.0336 165.602 41.2168 165.279 39.9339H165.277Z" fill="#F5F4ED"/>
<path id="Vector_31" d="M175.846 39.7676L177.622 41.5075L172.083 47.1642L170.307 45.4242L175.846 39.7676Z" fill="#F5F4ED"/>
<path id="Vector_32" d="M178.624 42.4414L180.234 44.2346L179.318 48.5331L179.333 48.5496L181.976 46.1764L183.475 47.8448L177.585 53.1344L176.086 51.466L177.137 46.8206L177.123 46.8041L174.232 49.4012L172.734 47.7328L178.624 42.4432V42.4414Z" fill="#F5F4ED"/>
<path id="Vector_33" d="M179.976 54.9253L182.071 54.8794C182.05 55.5218 182.184 56.4358 182.634 57.0672C182.86 57.3829 183.232 57.772 183.539 57.5536C183.845 57.3352 183.739 57.0305 183.601 56.6653L183.106 55.2997C182.719 54.2389 182.898 53.1707 183.838 52.5008C185.031 51.651 186.778 51.9189 187.931 53.5378C188.781 54.7308 188.996 55.4521 189.084 56.4946L186.993 56.3753C187.019 55.8375 186.76 55.1107 186.483 54.7216C186.187 54.305 185.877 54.0627 185.578 54.2756C185.279 54.4885 185.488 54.8574 185.69 55.4099L186.092 56.5276C186.554 57.8069 186.305 58.8163 185.446 59.4294C183.827 60.582 182.172 59.5413 181.281 58.2933C180.514 57.2177 179.991 56.2541 179.975 54.929L179.976 54.9253Z" fill="#F5F4ED"/>
<path id="Vector_34" d="M190.386 57.2655L191.662 59.4001L188.65 61.1987L192.848 61.3823L194.083 63.4508L190.177 63.236L187.297 67.5308L185.954 65.2807L187.828 62.5055L186.688 62.3716L184.867 63.4581L183.592 61.3236L190.388 57.2637L190.386 57.2655Z" fill="#F5F4ED"/>
<path id="Vector_35" d="M194.445 64.2676L195.585 66.4774L188.548 70.1078L187.408 67.898L194.445 64.2676Z" fill="#F5F4ED"/>
<path id="Vector_36" d="M198.241 72.2334L199.322 74.9222L192.944 80.3128L192.012 77.9947L193.045 77.1724L192.063 74.7314L190.747 74.8543L189.885 72.7106L198.239 72.2334H198.241ZM194.543 75.9831L196.641 74.3257L196.628 74.2945L193.967 74.5515L194.543 75.9831Z" fill="#F5F4ED"/>
<path id="Vector_37" d="M200.58 78.2861L201.684 81.9202C202.297 83.9391 201.401 85.1156 200.136 85.4992C199.202 85.7837 198.191 85.6259 197.46 84.8256L195.043 87.2997L194.25 84.6861L196.387 82.7039L196.234 82.2047L193.727 82.9645L193.006 80.584L200.582 78.2861H200.58ZM198.143 82.6452C198.31 83.1976 198.795 83.3757 199.23 83.2435C199.644 83.1169 199.978 82.7259 199.804 82.1533L199.518 81.2081L197.86 81.711L198.145 82.6452H198.143Z" fill="#F5F4ED"/>
<path id="Vector_38" d="M202.875 86.0928L204.174 92.1165L202.296 92.5221L201.522 88.9284L200.457 89.1579L201.07 92.0027L199.204 92.4047L198.591 89.5598L197.548 89.7837L198.323 93.3774L196.434 93.7849L195.135 87.7611L202.875 86.0928Z" fill="#F5F4ED"/>
<path id="Vector_39" d="M204.72 95.6584L205.091 98.5326L197.564 102.145L197.244 99.6669L198.452 99.131L198.116 96.5211L196.813 96.3081L196.518 94.0176L204.722 95.6584H204.72ZM200.198 98.3583L202.644 97.2809L202.64 97.2479L199.999 96.8276L200.198 98.3583Z" fill="#F5F4ED"/>
<path id="Vector_40" d="M201.811 107.66C202.965 107.679 203.872 108.626 203.854 109.769C203.835 110.902 202.899 111.808 201.745 111.79C200.624 111.772 199.695 110.836 199.713 109.703C199.732 108.56 200.69 107.642 201.811 107.66Z" fill="#F5F4ED"/>
<path id="Vector_41" d="M203.149 120.44L203.431 118.248L205.336 118.494L204.45 125.366L202.545 125.12L202.827 122.928L196.881 122.161L197.202 119.672L203.149 120.44Z" fill="#F5F4ED"/>
<path id="Vector_42" d="M204.261 126.482L203.738 128.914L200.948 128.312L200.528 130.266L203.318 130.867L202.795 133.298L195.055 131.632L195.578 129.2L198.432 129.815L198.852 127.86L195.998 127.245L196.521 124.813L204.261 126.48V126.482Z" fill="#F5F4ED"/>
<path id="Vector_43" d="M202.413 134.69L200.618 140.585L198.781 140.025L199.851 136.509L198.81 136.191L197.962 138.974L196.136 138.418L196.984 135.635L195.963 135.325L194.893 138.842L193.045 138.278L194.84 132.383L202.415 134.688L202.413 134.69Z" fill="#F5F4ED"/>
<path id="Vector_44" d="M199.187 144.487L196.775 150.158L195.008 149.406L196.447 146.023L195.344 145.553L194.206 148.231L192.427 147.475L193.567 144.797L190.93 143.675L191.902 141.387L199.189 144.485L199.187 144.487Z" fill="#F5F4ED"/>
<path id="Vector_45" d="M196.285 151.181L193.442 156.648L191.737 155.762L193.433 152.5L192.467 151.999L191.126 154.58L189.432 153.699L190.773 151.118L189.828 150.626L188.132 153.888L186.418 152.996L189.261 147.528L196.285 151.181Z" fill="#F5F4ED"/>
<path id="Vector_46" d="M192.763 157.757L191.488 159.894L184.689 155.836L185.965 153.699L192.763 157.757Z" fill="#F5F4ED"/>
<path id="Vector_47" d="M190.809 161.046L189.414 163.106L184.458 159.751L182.397 162.794L180.797 161.711L184.253 156.608L190.809 161.046Z" fill="#F5F4ED"/>
<path id="Vector_48" d="M186.709 167.033L184.51 169.783C183.38 171.196 181.816 171.908 180.315 170.708L178.485 169.245C176.871 167.955 177.209 166.235 178.312 164.857L180.524 162.089L186.707 167.033H186.709ZM179.94 165.916C179.511 166.453 179.714 167.015 180.096 167.32L181.71 168.61C182.168 168.977 182.73 168.9 183.132 168.395L183.639 167.762L180.482 165.238L179.94 165.916Z" fill="#F5F4ED"/>
<path id="Vector_49" d="M176.284 171.647L177.909 173.274C179.329 174.694 178.747 176.548 177.499 177.796C176.393 178.903 174.546 179.743 173.197 178.393L172.962 178.158L174.612 176.509L174.746 176.643C175.187 177.084 175.759 176.933 176.112 176.581C176.56 176.133 176.646 175.561 176.174 175.089L174.519 173.431C174.047 172.96 173.474 172.89 172.988 173.376C172.54 173.824 172.461 174.279 172.902 174.72L173.05 174.869L173.867 174.052L175.005 175.19L172.492 177.702L171.086 176.297C169.759 174.97 170.584 173.14 171.692 172.033C172.949 170.778 174.739 170.102 176.286 171.649L176.284 171.647Z" fill="#F5F4ED"/>
<path id="Vector_50" d="M170.874 177.058L174.127 180.908L172.227 182.513L169.032 178.73C168.516 178.119 167.916 178.132 167.45 178.526C167 178.906 166.958 179.508 167.437 180.077L170.632 183.86L168.791 185.414L165.574 181.606C164.234 180.02 164.871 178.174 166.304 176.964C167.958 175.567 169.535 175.472 170.874 177.058Z" fill="#F5F4ED"/>
<path id="Vector_51" d="M167.694 186.193L165.697 187.676L160.979 181.318L162.975 179.835L167.694 186.193Z" fill="#F5F4ED"/>
<path id="Vector_52" d="M164.625 188.5L161.676 190.42C160.16 191.407 158.451 191.591 157.403 189.981L156.125 188.017C154.999 186.287 155.859 184.76 157.339 183.796L160.306 181.863L164.625 188.498V188.5ZM158.55 185.314C157.974 185.69 157.992 186.287 158.258 186.696L159.385 188.427C159.706 188.92 160.262 189.021 160.802 188.671L161.481 188.228L159.277 184.84L158.55 185.312V185.314Z" fill="#F5F4ED"/>
<path id="Vector_53" d="M157.803 192.859L152.383 195.792L151.469 194.102L154.701 192.352L154.184 191.396L151.625 192.78L150.717 191.101L153.275 189.717L152.769 188.779L149.537 190.528L148.617 188.828L154.037 185.896L157.805 192.859H157.803Z" fill="#F5F4ED"/>
<path id="Vector_54" d="M146.135 196.513L148.182 195.678L148.909 197.456L142.494 200.074L141.767 198.295L143.814 197.46L141.549 191.908L143.872 190.959L146.137 196.511L146.135 196.513Z" fill="#F5F4ED"/>
<path id="Vector_55" d="M140.179 195.616L140.79 197.554C141.435 199.598 140.119 201.002 138.371 201.553C136.644 202.096 134.73 201.896 134.034 199.683L133.427 197.756C132.746 195.595 134.209 194.285 135.883 193.758C137.619 193.211 139.482 193.393 140.181 195.617L140.179 195.616ZM135.802 196.948L136.45 199.004C136.663 199.681 137.235 199.874 137.766 199.707C138.401 199.507 138.637 199.072 138.419 198.383L137.786 196.372C137.569 195.683 137.11 195.408 136.453 195.616C135.85 195.806 135.602 196.315 135.802 196.95V196.948Z" fill="#F5F4ED"/>
<path id="Vector_56" d="M128.858 203.91L126.011 204.451L121.953 197.154L124.407 196.686L125.015 197.858L127.601 197.367L127.735 196.052L130.003 195.621L128.858 203.91ZM125.892 199.558L127.114 201.937L127.147 201.931L127.41 199.27L125.894 199.558H125.892Z" fill="#F5F4ED"/>
<path id="Vector_57" d="M122.466 205.041L118.687 205.422C116.587 205.635 115.605 204.529 115.473 203.214C115.374 202.242 115.724 201.28 116.65 200.718L114.688 197.87L117.406 197.594L118.94 200.074L119.46 200.021L119.195 197.413L121.669 197.163L122.466 205.041ZM118.657 201.81C118.083 201.869 117.815 202.308 117.861 202.761C117.905 203.192 118.224 203.594 118.821 203.534L119.805 203.435L119.63 201.711L118.657 201.81Z" fill="#F5F4ED"/>
<path id="Vector_58" d="M112.173 205.848L109.275 205.894L106.527 198.009L109.025 197.969L109.424 199.228L112.054 199.186L112.412 197.914L114.721 197.877L112.173 205.846V205.848ZM109.996 201.052L110.793 203.605H110.826L111.54 201.028L109.996 201.054V201.052Z" fill="#F5F4ED"/>
<path id="Vector_59" d="M105.687 205.859L101.755 205.58C99.7843 205.441 99.0116 204.093 99.1052 202.776C99.2025 201.403 100.091 200.041 102.139 200.186L103.591 200.289L103.769 197.785L106.25 197.961L105.689 205.859H105.687ZM102.475 202.025C101.899 201.985 101.559 202.383 101.528 202.825C101.497 203.256 101.743 203.708 102.341 203.752L103.338 203.824L103.461 202.095L102.475 202.025Z" fill="#F5F4ED"/>
<path id="Vector_60" d="M96.1948 205.005L93.3297 204.572L91.9238 196.342L94.3943 196.716L94.5778 198.025L97.1804 198.418L97.7438 197.223L100.027 197.568L96.1948 205.007V205.005ZM94.8421 199.915L95.2055 202.564L95.2385 202.569L96.3691 200.147L94.8439 199.915H94.8421Z" fill="#F5F4ED"/>
<path id="Vector_61" d="M89.7802 203.953L87.363 203.364L88.0402 200.591L86.0984 200.117L85.4211 202.891L83.0039 202.301L84.8815 194.609L87.2987 195.199L86.6068 198.036L88.5486 198.51L89.2406 195.672L91.6578 196.261L89.7802 203.953Z" fill="#F5F4ED"/>
<path id="Vector_62" d="M83.3954 197.228L82.7457 199.154C82.0593 201.184 80.1688 201.542 78.4344 200.954C76.7201 200.374 75.2922 199.084 76.0355 196.885L76.6816 194.971C77.4066 192.825 79.3594 192.629 81.0223 193.191C82.7476 193.774 84.1424 195.019 83.3973 197.228H83.3954ZM79.0749 195.722L78.3848 197.762C78.1572 198.436 78.506 198.928 79.0327 199.106C79.6641 199.319 80.1101 199.106 80.3414 198.423L81.0168 196.424C81.248 195.74 81.0388 195.248 80.3872 195.028C79.7871 194.826 79.2878 195.09 79.0749 195.722Z" fill="#F5F4ED"/>
<path id="Vector_63" d="M73.9378 199.222L68.2793 196.779L69.041 195.015L72.4144 196.472L72.8457 195.474L70.1753 194.319L70.9333 192.567L73.6038 193.719L74.0259 192.741L70.6525 191.284L71.4178 189.509L77.0763 191.952L73.9378 199.22V199.222Z" fill="#F5F4ED"/>
<path id="Vector_64" d="M64.5217 194.914L60.471 192.602C59.0926 191.814 58.9476 190.658 59.4652 189.751C59.8506 189.076 60.616 188.542 61.5006 188.74L61.5171 188.711C60.8711 188.074 60.8307 187.182 61.2216 186.496C61.7778 185.521 62.9891 184.923 64.3675 185.71L68.4457 188.039L64.5198 194.914H64.5217ZM62.7762 190.401C62.332 190.148 61.9796 190.342 61.809 190.642C61.6658 190.893 61.7264 191.234 62.1412 191.471L63.2699 192.115L63.8866 191.036L62.778 190.403L62.7762 190.401ZM64.2445 187.788C63.8205 187.545 63.4571 187.734 63.292 188.024C63.1268 188.314 63.2259 188.678 63.6499 188.92L64.7401 189.542L65.3733 188.434L64.2445 187.789V187.788Z" fill="#F5F4ED"/>
<path id="Vector_65" d="M55.6441 189.578L53.2617 187.927L55.6257 179.917L57.6795 181.341L57.2684 182.597L59.4323 184.096L60.4638 183.27L62.3616 184.586L55.6441 189.578ZM56.6719 184.412L55.8313 186.95L55.8588 186.969L57.9401 185.291L56.6719 184.412Z" fill="#F5F4ED"/>
<path id="Vector_66" d="M55.2261 180.534L53.2145 181.119C53.0677 180.494 52.7043 179.646 52.1041 179.15C51.8049 178.902 51.3442 178.623 51.1038 178.913C50.8634 179.205 51.0469 179.471 51.2745 179.789L52.1059 180.98C52.7538 181.905 52.8566 182.982 52.1206 183.873C51.1864 185.003 49.4299 185.192 47.8992 183.926C46.7686 182.992 46.3777 182.351 46.0234 181.367L48.0736 180.943C48.1874 181.468 48.626 182.105 48.9931 182.41C49.3877 182.735 49.7493 182.891 49.9824 182.608C50.2155 182.325 49.9181 182.022 49.5823 181.542L48.9068 180.565C48.1305 179.447 48.1103 178.409 48.782 177.596C50.0484 176.063 51.9169 176.643 53.0989 177.619C54.1175 178.462 54.8718 179.257 55.2297 180.532L55.2261 180.534Z" fill="#F5F4ED"/>
<path id="Vector_67" d="M44.6643 180.978L42.8418 179.286L48.2287 173.486L50.0512 175.179L44.6643 180.98V180.978Z" fill="#F5F4ED"/>
<path id="Vector_68" d="M41.8165 178.379L40.1591 176.63L40.9612 172.307L40.9465 172.291L38.3659 174.734L36.8242 173.106L42.5727 167.662L44.1144 169.292L43.1857 173.963L43.2004 173.98L46.0232 171.307L47.5649 172.935L41.8165 178.379Z" fill="#F5F4ED"/>
<path id="Vector_69" d="M40.1382 165.939L38.0477 166.042C38.0513 165.4 37.8935 164.49 37.4255 163.869C37.1924 163.559 36.8088 163.181 36.5078 163.407C36.2068 163.634 36.3224 163.935 36.4692 164.297L37.0015 165.648C37.4163 166.698 37.2658 167.769 36.3444 168.465C35.1734 169.346 33.4206 169.124 32.2258 167.538C31.343 166.367 31.1117 165.653 30.9961 164.614L33.0884 164.679C33.0756 165.216 33.3564 165.938 33.6427 166.318C33.9492 166.725 34.2668 166.96 34.5586 166.74C34.8504 166.519 34.632 166.156 34.4154 165.609L33.9841 164.502C33.4886 163.236 33.7106 162.221 34.5531 161.586C36.1407 160.389 37.8237 161.388 38.7451 162.61C39.5398 163.665 40.0886 164.614 40.14 165.938L40.1382 165.939Z" fill="#F5F4ED"/>
<path id="Vector_70" d="M29.6645 163.872L28.332 161.771L31.2962 159.891L27.095 159.82L25.8047 157.784L29.7141 157.896L32.48 153.526L33.8822 155.74L32.0836 158.563L33.227 158.665L35.0183 157.529L36.3508 159.631L29.6627 163.871L29.6645 163.872Z" fill="#F5F4ED"/>
<path id="Vector_71" d="M25.4231 156.975L24.2246 154.796L31.1624 150.98L32.3609 153.159L25.425 156.975H25.4231Z" fill="#F5F4ED"/>
<path id="Vector_72" d="M21.4163 149.123L20.2637 146.464L26.4948 140.904L27.4896 143.197L26.4783 144.046L27.5263 146.462L28.8386 146.304L29.7581 148.424L21.4181 149.123H21.4163ZM25.0137 145.274L22.9599 146.989L22.9727 147.02L25.6267 146.691L25.0118 145.274H25.0137Z" fill="#F5F4ED"/>
<path id="Vector_73" d="M18.9139 143.129L17.7154 139.526C17.0491 137.524 17.9136 136.324 19.1671 135.907C20.094 135.599 21.109 135.729 21.8597 136.509L24.2108 133.971L25.0734 136.562L22.9903 138.601L23.1554 139.097L25.6424 138.269L26.4279 140.629L18.9157 143.129H18.9139ZM21.2338 138.706C21.0521 138.159 20.5639 137.994 20.1326 138.137C19.7214 138.273 19.3984 138.673 19.5874 139.242L19.8995 140.18L21.544 139.633L21.2356 138.706H21.2338Z" fill="#F5F4ED"/>
<path id="Vector_74" d="M16.4141 135.397L14.9531 129.41L16.8197 128.955L17.6915 132.526L18.7487 132.267L18.0586 129.441L19.9142 128.988L20.6043 131.814L21.6394 131.561L20.7676 127.989L22.6452 127.53L24.1062 133.517L16.4141 135.395V135.397Z" fill="#F5F4ED"/>
<path id="Vector_75" d="M14.3093 125.876L13.8633 123.013L21.2948 119.201L21.6802 121.67L20.4872 122.237L20.8928 124.838L22.2014 125.016L22.5575 127.297L14.3111 125.875L14.3093 125.876ZM18.7583 123.057L16.3392 124.199L16.3447 124.232L18.995 124.583L18.7564 123.057H18.7583Z" fill="#F5F4ED"/>
</g>
</svg>
