<svg width="18" height="16" viewBox="0 0 18 16" fill="none" xmlns="http://www.w3.org/2000/svg">
<path id="Twitter Icon" d="M5.66064 16C12.4531 16 16.1683 9.84379 16.1683 4.50515C16.1683 4.3303 16.1683 4.15623 16.1575 3.98295C16.8803 3.41105 17.5042 2.70293 18 1.89176C17.326 2.21863 16.611 2.4329 15.8789 2.52738C16.6499 2.02255 17.2269 1.22842 17.5025 0.292845C16.7776 0.763468 15.9845 1.09511 15.1574 1.27346C14.6006 0.62577 13.8642 0.196886 13.0621 0.0531763C12.2601 -0.090533 11.4371 0.0589443 10.7205 0.478477C10.0039 0.89801 9.43367 1.56421 9.09806 2.37398C8.76245 3.18376 8.68016 4.09196 8.86392 4.95805C7.39567 4.87748 5.95932 4.46005 4.64809 3.73288C3.33686 3.0057 2.18007 1.98501 1.2528 0.737075C0.780546 1.62645 0.635904 2.67929 0.848325 3.68123C1.06075 4.68318 1.61426 5.55888 2.39616 6.13006C1.80842 6.11122 1.23349 5.93777 0.72 5.62439V5.67559C0.720233 6.60833 1.01539 7.51227 1.5554 8.23409C2.09542 8.9559 2.84705 9.45116 3.6828 9.63585C3.13911 9.79809 2.56866 9.8218 2.01528 9.70517C2.25136 10.5078 2.71082 11.2098 3.32943 11.7128C3.94804 12.2158 4.69487 12.4948 5.46552 12.5107C4.69983 13.1691 3.82299 13.6559 2.88516 13.9433C1.94733 14.2306 0.966911 14.3128 0 14.1853C1.68887 15.3709 3.65394 15.9997 5.66064 15.9969" fill="white"/>
</svg>
