<svg width="20" height="14" viewBox="0 0 20 14" fill="none" xmlns="http://www.w3.org/2000/svg">
<path id="Exclude" fill-rule="evenodd" clip-rule="evenodd" d="M17.8136 0.418156C18.6746 0.648636 19.3513 1.32526 19.5818 2.18627C19.9983 3.74529 20 7 20 7C20 7 20 10.2547 19.5818 11.8138C19.3513 12.6748 18.6746 13.3514 17.8136 13.5818C16.2545 14 9.99996 14 9.99996 14C9.99996 14 3.74547 14 2.18636 13.5818C1.32532 13.3514 0.648666 12.6748 0.418176 11.8138C0 10.2547 0 7 0 7C0 7 0 3.74529 0.418176 2.18627C0.648666 1.32526 1.32532 0.648636 2.18636 0.418156C3.74547 0 9.99996 0 9.99996 0C9.99996 0 16.2545 0 17.8136 0.418156ZM13.6139 7.00037L8.1818 9.99987V4.00082L13.6139 7.00037Z" fill="white"/>
</svg>
