<svg width="104" height="105" viewBox="0 0 104 105" fill="none" xmlns="http://www.w3.org/2000/svg">
<g id="Logo-2">
<path id="Vector" fill-rule="evenodd" clip-rule="evenodd" d="M76.6004 62.9286V65.365H77.0276V64.4065H77.3641C77.5937 64.4065 77.7486 64.4333 77.8394 64.4868C77.9942 64.5778 78.069 64.7652 78.069 65.0437V65.2365L78.0797 65.3168C78.0797 65.3168 78.085 65.3382 78.085 65.3435C78.0904 65.3543 78.0903 65.365 78.0903 65.365H78.4909L78.4749 65.3328C78.4749 65.3328 78.4588 65.2686 78.4535 65.2043C78.4535 65.1401 78.4535 65.0758 78.4535 65.0223V64.8456C78.4535 64.7171 78.4108 64.5939 78.32 64.4654C78.2292 64.3369 78.0903 64.2565 77.8981 64.2244C78.0476 64.203 78.1651 64.1602 78.2506 64.1066C78.4108 64.0049 78.4909 63.8442 78.4909 63.6247C78.4909 63.3195 78.3627 63.1106 78.1117 63.0089C77.9675 62.95 77.7486 62.9179 77.4495 62.9179H76.6004V62.9286ZM78.0743 63.6675C78.0743 63.8549 77.9889 63.9835 77.8233 64.0477C77.7325 64.0852 77.599 64.1013 77.4175 64.1013H77.033V63.2177H77.4014C77.6364 63.2177 77.8073 63.2499 77.9141 63.3088C78.0209 63.373 78.0797 63.4908 78.0797 63.6675H78.0743ZM79.7138 64.1495C79.7138 63.5337 79.4949 63.0143 79.0676 62.5805C78.6351 62.1522 78.1117 61.9326 77.4976 61.9326C76.8834 61.9326 76.3654 62.1522 75.9382 62.5805C75.5056 63.0143 75.292 63.539 75.292 64.1495C75.292 64.7599 75.5056 65.2954 75.9382 65.7237C76.3654 66.1628 76.8888 66.377 77.5029 66.377C78.1171 66.377 78.6404 66.1628 79.073 65.7237C79.5056 65.2846 79.7192 64.7652 79.7192 64.1495H79.7138ZM77.4976 62.2325C78.0263 62.2325 78.4749 62.4199 78.8487 62.7947C79.2172 63.1695 79.4041 63.6193 79.4041 64.1441C79.4041 64.6742 79.2172 65.1294 78.8487 65.5042C78.4749 65.879 78.0263 66.0664 77.4976 66.0664C76.9689 66.0664 76.5149 65.879 76.1464 65.5042C75.778 65.1294 75.5964 64.6742 75.5964 64.1441C75.5964 63.614 75.7833 63.1642 76.1518 62.7947C76.5256 62.4199 76.9742 62.2325 77.4976 62.2325Z" fill="white"/>
<path id="Vector_2" fill-rule="evenodd" clip-rule="evenodd" d="M91.0141 40.0102H78.4161L87.3132 28.835H70.0744V65.9644L91.0141 40.0102ZM69.5938 15.4161H55.5806V0L34.2191 26.1362V13.2689L18.5664 32.4333V78.8263L69.5884 15.4161H69.5938ZM46.6301 58.2429L40.2858 66.0982H60.5846V58.2429H46.6301ZM53.594 49.5844H60.5846V40.7973L53.594 49.5844Z" fill="white"/>
<path id="Vector_3" d="M30.3741 83.5491C29.7546 83.094 28.991 83.0672 28.0457 83.0672H26.1071V92.62H27.1806V88.3309H28.0457C29.0016 88.3309 29.7493 88.3041 30.3741 87.8489C30.9562 87.4206 31.3194 86.6334 31.3194 85.6964C31.3194 84.7593 30.9562 83.9722 30.3741 83.5438V83.5491ZM27.736 87.3028H27.1806V84.1114H27.736C29.3381 84.1114 30.1285 84.3791 30.1285 85.766C30.1285 87.1528 29.3274 87.3028 27.736 87.3028ZM30.5397 92.62H31.8053L32.788 90.3335H37.2045L38.1924 92.62H39.4581L34.9935 82.6924L30.545 92.62H30.5397ZM33.2259 89.3108L34.9882 85.2091L36.7612 89.3108H33.2259ZM75.7193 92.62H76.985L77.9676 90.3335H82.3841L83.3721 92.62H84.6378L80.1732 82.6924L75.7247 92.62H75.7193ZM78.4055 89.3108L80.1679 85.2091L81.9409 89.3108H78.4055ZM16.3983 92.62H17.664L18.6466 90.3335H23.0631L24.0511 92.62H25.3168L20.8522 82.6924L16.4037 92.62H16.3983ZM19.0845 89.3108L20.8469 85.2091L22.6199 89.3108H19.0845ZM0.5 92.6253H1.76567L2.7483 90.3389H7.1648L8.15277 92.6253H9.41844L4.95388 82.6977L0.5 92.6253ZM3.18621 89.3161L4.94854 85.2144L6.72155 89.3161H3.18621ZM13.0873 88.0685C14.7161 88.0685 15.5812 87.2385 15.5812 85.6749C15.5812 84.7379 15.2448 83.9775 14.7161 83.5491C14.15 83.094 13.4771 83.0672 12.596 83.0672H10.4278V92.62H11.5012V88.0631H11.6561L15.0312 92.62H16.425L12.9004 88.0631H13.0926L13.0873 88.0685ZM11.4959 87.2278V84.0364H12.3343C13.7922 84.0364 14.4918 84.3041 14.4918 85.691C14.4918 87.0779 13.7815 87.2278 12.3343 87.2278H11.4959ZM89.0649 87.3188L87.7459 86.7191C86.9074 86.3443 86.5069 85.8624 86.5069 85.1823C86.5069 84.3684 87.089 83.7901 87.9168 83.7901C88.579 83.7901 89.081 84.1649 89.4815 84.8878L90.3894 84.2881C89.9354 83.3403 89.1077 82.8423 87.9969 82.8423C86.4588 82.8423 85.4014 83.8597 85.4014 85.193C85.4014 86.355 85.9942 87.185 87.2225 87.7204L88.3493 88.2131C89.3053 88.6414 89.7859 89.2679 89.7859 90.1247C89.7859 91.1688 89.0489 91.9024 87.9381 91.9024C87.0089 91.9024 86.3734 91.3027 86.1064 90.1408L85.1131 90.6494C85.4602 92.0684 86.4802 92.8663 87.9435 92.8663C89.7271 92.8663 90.902 91.6883 90.902 89.9426C90.902 88.7378 90.2932 87.8597 89.081 87.3242L89.0649 87.3188ZM92.36 92.6253H93.4601V83.0726H92.36V92.6253ZM102.421 83.0726V90.3282L95.4627 82.6977V92.6253H96.5415V85.45L103.505 93.0001V83.0726H102.427H102.421ZM73.5351 87.5598C74.4109 87.2921 74.9076 86.596 74.9076 85.5839C74.9076 84.7272 74.5605 83.9936 73.9784 83.5545C73.3962 83.1154 72.6593 83.0726 71.6499 83.0726H69.7274V92.6253H71.6499C72.969 92.6253 73.8715 92.5825 74.5444 91.9024C75.009 91.4205 75.3081 90.6976 75.3081 89.9105C75.3081 88.6254 74.6245 87.7311 73.5351 87.5598ZM70.7955 84.0578H71.6499C73.1132 84.0578 73.7808 84.3363 73.7808 85.7124C73.7808 86.8744 73.1346 87.2492 71.6499 87.2492H70.7955V84.0578ZM73.5351 91.3134C73.1346 91.6079 72.5258 91.6347 71.6499 91.6347H70.7955V88.1488H71.9704C72.5418 88.1488 72.9904 88.1595 73.3802 88.4005C73.8822 88.695 74.1439 89.2144 74.1439 89.9105C74.1439 90.5102 73.9143 91.0296 73.5351 91.3134ZM53.6101 82.853C52.3071 82.853 51.0521 83.3724 50.1229 84.3095C49.1829 85.2573 48.6756 86.4996 48.6756 87.865C48.6756 89.2305 49.1776 90.4567 50.1229 91.4045C51.0521 92.3415 52.3071 92.877 53.6101 92.877C54.9132 92.877 56.1682 92.3522 57.1134 91.4045C58.0426 90.4674 58.55 89.2251 58.55 87.865C58.55 86.5049 58.0587 85.2573 57.1134 84.3095C56.1842 83.3724 54.9185 82.853 53.6101 82.853ZM56.2857 90.6441C55.5487 91.4045 54.6195 91.8061 53.6101 91.8061C52.6008 91.8061 51.6716 91.4045 50.9346 90.6441C50.2136 89.8837 49.8238 88.9359 49.8238 87.865C49.8238 86.7941 50.2136 85.8195 50.9346 85.0592C51.6449 84.3095 52.5901 83.9079 53.6101 83.9079C54.6301 83.9079 55.5594 84.3095 56.2857 85.0592C57.0066 85.8088 57.3965 86.7941 57.3965 87.865C57.3965 88.9359 57.0066 89.8944 56.2857 90.6441ZM46.0375 86.7459H41.1297V83.0726H40.0295V92.6253H41.1297V87.8275H46.0375V92.6253H47.1483V83.0726H46.0375V86.7459ZM59.6928 92.6253H64.5633V91.5704H60.7876V87.9078H64.5633V86.853H60.7876V84.1114H64.5633V83.0672H59.6928V92.62V92.6253Z" fill="white"/>
<path id="Vector_4" d="M26.4757 97.1985C25.8989 96.5988 25.0285 96.2775 24.1473 96.2775C22.0485 96.2775 20.1634 98.0338 19.8376 100.117C19.5118 102.173 20.8256 103.929 22.9137 103.929C23.8322 103.929 24.7721 103.581 25.5678 102.96L25.3489 104.342C24.5585 104.765 23.6026 105 22.7802 105C20.1046 105 18.2301 102.869 18.6627 100.149C19.1006 97.3698 21.6694 95.2012 24.4303 95.2012C25.2528 95.2012 26.0538 95.3993 26.6893 95.8384L26.4757 97.1985Z" fill="white"/>
<path id="Vector_5" d="M36.521 100.101C36.0777 102.891 33.5464 105 30.8334 105C28.1205 105 26.2567 102.896 26.7 100.101C27.1272 97.4073 29.7013 95.2012 32.3875 95.2012C35.0737 95.2012 36.9482 97.4073 36.521 100.101ZM35.3514 100.101C35.6772 98.0338 34.4115 96.2989 32.2113 96.2989C30.011 96.2989 28.1953 98.0338 27.8695 100.101C27.5331 102.243 28.9857 103.903 31.0097 103.903C33.0337 103.903 35.015 102.243 35.3514 100.101Z" fill="white"/>
<path id="Vector_6" d="M38.1925 103.726H41.0389L40.868 104.797H36.8521L38.3367 95.3994H39.5062L38.1925 103.726Z" fill="white"/>
<path id="Vector_7" d="M51.4955 100.101C51.0522 102.891 48.5209 105 45.8133 105C43.1057 105 41.2366 102.896 41.6745 100.101C42.1017 97.4073 44.6758 95.2012 47.362 95.2012C50.0482 95.2012 51.9227 97.4073 51.5008 100.101H51.4955ZM50.3259 100.101C50.6517 98.0338 49.386 96.2989 47.1858 96.2989C44.9855 96.2989 43.1698 98.0338 42.844 100.101C42.5076 102.243 43.9602 103.903 45.9842 103.903C48.0082 103.903 49.9895 102.243 50.3259 100.101Z" fill="white"/>
<path id="Vector_8" d="M57.6632 104.802H56.248L54.1172 100.829H53.6313L53.0011 104.802H51.8315L53.3162 95.4043H54.7314C55.5645 95.4043 56.4563 95.415 57.1345 95.8434C57.8448 96.3039 58.1546 97.1874 58.0104 98.087C57.7968 99.431 56.7233 100.556 55.3455 100.716L57.6579 104.802H57.6632ZM53.7808 99.854H54.1546C55.3455 99.854 56.6753 99.6291 56.9102 98.1352C57.1452 96.6627 55.7834 96.4538 54.6299 96.4538H54.3202L53.7808 99.8594V99.854Z" fill="white"/>
<path id="Vector_9" d="M60.2374 102.446L58.7955 104.802H57.5405L63.5645 95.0029L66.491 104.802H65.236L64.5418 102.446H60.2428H60.2374ZM63.1586 97.5732L60.8943 101.375H64.2267L63.1586 97.5732Z" fill="white"/>
<path id="Vector_10" d="M68.6057 95.3994H70.5443C73.4174 95.3994 75.5642 96.9201 75.0676 100.047C74.5603 103.249 71.9808 104.797 69.0223 104.797H67.1211L68.6057 95.3994ZM68.4615 103.726H68.8674C71.2546 103.726 73.4601 102.826 73.8927 100.101C74.3253 97.3592 72.4027 96.4704 70.0156 96.4704H69.6044L68.4615 103.726Z" fill="white"/>
<path id="Vector_11" d="M85.3426 100.101C84.8994 102.891 82.368 105 79.6605 105C76.9529 105 75.0838 102.896 75.5217 100.101C75.9489 97.4073 78.523 95.2012 81.2092 95.2012C83.8954 95.2012 85.7699 97.4073 85.348 100.101H85.3426ZM84.1731 100.101C84.4989 98.0338 83.2332 96.2989 81.0329 96.2989C78.8327 96.2989 77.017 98.0338 76.6912 100.101C76.3548 102.243 77.8074 103.903 79.8314 103.903C81.8554 103.903 83.8366 102.243 84.1731 100.101Z" fill="white"/>
</g>
</svg>
