<svg width="17" height="16" viewBox="0 0 17 16" fill="none" xmlns="http://www.w3.org/2000/svg">
<g clip-path="url(#clip0_880_93726)">
<path d="M0.899994 8.00694C0.941343 6.2215 1.46828 4.60147 2.55714 3.17439C2.84446 2.79695 3.23569 2.66866 3.6619 2.80119C4.04253 2.91887 4.33409 3.29738 4.35424 3.72359C4.3659 3.97487 4.25458 4.18903 4.11675 4.39366C3.93757 4.65872 3.75839 4.9259 3.60359 5.20474C3.16253 6.00204 2.94413 6.86083 2.90914 7.77157C2.85083 9.24529 3.26538 10.5727 4.18884 11.7146C5.19288 12.9572 6.49167 13.7322 8.09369 13.9432C8.4319 13.9877 8.77754 13.9814 9.11999 13.9941C9.24086 13.9983 9.35006 13.9644 9.39777 13.8372C9.44124 13.7205 9.38081 13.6336 9.30341 13.5562C8.82737 13.0759 8.35132 12.5946 7.8721 12.1164C7.66111 11.9054 7.55191 11.6563 7.57311 11.3583C7.6028 10.9438 7.8106 10.6459 8.19441 10.4879C8.57927 10.3289 8.93763 10.4116 9.23132 10.6893C9.73811 11.1696 10.2311 11.6647 10.722 12.1609C11.0443 12.4864 11.2553 12.8777 11.3465 13.3283C11.6179 14.6748 10.5662 15.9661 9.19209 15.9873C7.21687 16.0181 5.43568 15.4466 3.8941 14.2167C2.38326 13.0112 1.4545 11.4315 1.06539 9.53686C0.959367 9.03325 0.899994 8.52327 0.899994 8.00694Z" fill="#EDAE0E"/>
<path d="M16.9 7.79166C16.883 8.99397 16.6901 9.9556 16.3359 10.8886C16.0592 11.6181 15.6786 12.286 15.1856 12.8882C14.9057 13.2307 14.4296 13.3367 14.0395 13.1565C13.6355 12.9698 13.3758 12.5129 13.4659 12.0877C13.5019 11.9181 13.5846 11.7442 13.6885 11.6043C14.1635 10.9596 14.5282 10.262 14.7074 9.48168C15.2132 7.28169 14.7106 5.3404 13.1171 3.72672C12.1205 2.71738 10.8885 2.15228 9.46987 2.01975C9.19527 1.9943 8.91643 2.00914 8.6397 2.0049C8.53368 2.00278 8.44992 2.03671 8.40963 2.14273C8.36934 2.24876 8.39585 2.33994 8.47431 2.41946C8.74361 2.69088 9.01185 2.9623 9.28221 3.23372C9.5144 3.46697 9.75613 3.6928 9.97984 3.93453C10.3287 4.31303 10.3202 4.86436 9.97348 5.25028C9.63951 5.62136 9.09348 5.68498 8.68211 5.39553C8.58563 5.32768 8.49657 5.2471 8.41281 5.16334C7.9654 4.71592 7.51374 4.27169 7.07586 3.81472C6.50015 3.21463 6.27432 2.50215 6.47365 1.68471C6.70584 0.742164 7.56675 0.031807 8.53898 0.0127228C11.0952 -0.0371082 13.2644 0.852429 14.9555 2.7863C15.95 3.92393 16.5628 5.26194 16.7887 6.7643C16.8502 7.17143 16.8788 7.58386 16.9 7.79166Z" fill="#EDAE0E"/>
</g>
<defs>
<clipPath id="clip0_880_93726">
<rect width="16" height="15.9788" fill="white" transform="translate(0.899994 0.0107422)"/>
</clipPath>
</defs>
</svg>
