<svg width="17" height="16" viewBox="0 0 17 16" fill="none" xmlns="http://www.w3.org/2000/svg">
<g clip-path="url(#clip0_880_93789)">
<path d="M16.4041 8.00265C16.4041 8.61331 16.4051 9.22502 16.4041 9.83568C16.4009 10.7898 16.069 11.6199 15.4064 12.2995C14.5233 13.207 13.6254 14.0997 12.72 14.986C12.0372 15.6549 11.204 15.991 10.2456 15.9942C9.00517 15.9984 7.76478 16.0037 6.52545 15.992C5.59992 15.9836 4.78466 15.6676 4.11993 15.0167C3.21879 14.1336 2.33038 13.2367 1.4409 12.3419C0.936261 11.833 0.603369 11.2266 0.470849 10.5205C0.427382 10.2894 0.407239 10.0498 0.406179 9.81341C0.399818 8.5921 0.397697 7.36973 0.402998 6.14736C0.407239 5.20382 0.73589 4.38007 1.39213 3.7058C2.28479 2.78876 3.19123 1.88656 4.10615 0.991784C4.68288 0.428836 5.38365 0.102306 6.19256 0.0238537C6.3325 0.0100716 6.4735 0.00159025 6.61344 0.00159025C7.81355 -0.000530082 9.01471 -0.000530082 10.2148 0.00159025C11.1881 0.00159025 12.0319 0.337662 12.7253 1.01829C13.6126 1.88974 14.4894 2.77286 15.3672 3.65598C15.9832 4.27511 16.3161 5.02783 16.4009 5.89398C16.4072 5.95547 16.4062 6.01696 16.4062 6.07845C16.4062 6.71985 16.4062 7.36231 16.4062 8.00371H16.4051L16.4041 8.00265ZM8.40936 13.9841C9.02956 13.9852 9.64975 13.9809 10.2699 13.9873C10.6749 13.9915 11.0184 13.8537 11.3089 13.5791C11.4785 13.419 11.6407 13.2526 11.8061 13.0883C11.9015 12.9936 11.9005 12.8974 11.8029 12.7999C9.99537 10.9944 8.18884 9.18897 6.38126 7.38245C5.4356 6.43785 4.48993 5.49324 3.54639 4.54651C3.4796 4.47972 3.44037 4.467 3.36934 4.54227C3.20289 4.71826 3.02691 4.88365 2.85622 5.05539C2.53817 5.3745 2.40353 5.7604 2.40565 6.21097C2.41095 7.41956 2.40141 8.62815 2.40141 9.8378C2.40141 9.95547 2.41625 10.0753 2.43957 10.1908C2.50318 10.5068 2.67387 10.7644 2.89969 10.9891C3.72767 11.815 4.5546 12.643 5.38153 13.4689C5.43772 13.525 5.49603 13.5781 5.5554 13.63C5.82468 13.8643 6.13743 13.9841 6.49576 13.9841C7.13398 13.9841 7.77114 13.9841 8.40936 13.9841ZM8.39982 2.00318C8.39982 2.00318 8.39982 2.00742 8.39982 2.00954C7.94289 2.00954 7.4849 2.00954 7.02797 2.00954C6.82971 2.00954 6.63252 2.00318 6.43427 2.00954C6.08654 2.02014 5.78333 2.15266 5.53101 2.38802C5.33488 2.57037 5.14935 2.76438 4.96064 2.95521C4.86311 3.05274 4.86523 3.0538 4.95852 3.1471C7.31527 5.50172 9.67307 7.85741 12.0298 10.212C12.4465 10.6287 12.8621 11.0453 13.2787 11.462C13.319 11.5023 13.3497 11.5489 13.4144 11.4821C13.6084 11.2786 13.813 11.0856 14.006 10.881C14.288 10.581 14.4014 10.2205 14.4003 9.81023C14.395 8.59316 14.3993 7.37503 14.4014 6.15796C14.4014 5.90777 14.3664 5.66181 14.235 5.44871C14.1279 5.27485 14.0007 5.1084 13.8565 4.96316C13.0497 4.14683 12.2366 3.33793 11.4245 2.5269C11.3746 2.47707 11.3227 2.43043 11.2697 2.38272C10.9781 2.12192 10.6357 2 10.2456 2.00212C9.62961 2.0053 9.01471 2.00212 8.39876 2.00212L8.39982 2.00318Z" fill="#E76F2B"/>
</g>
<defs>
<clipPath id="clip0_880_93789">
<rect width="16.0053" height="16" fill="white" transform="translate(0.399994)"/>
</clipPath>
</defs>
</svg>
