<svg xmlns="http://www.w3.org/2000/svg" width="988" height="660" viewBox="0 0 988 660"><rect width="100%" height="100%" fill="#DDDDDD"/><path fill="#999999" d="M216.77 311.065q0 7.93 4.1 12.09 4.09 4.16 11.62 4.16 3.93 0 7.01-1.25 3.08-1.24 5.17-3.4 2.1-2.16 3.18-5.11t1.08-6.36q0-3.86-1.18-6.91-1.18-3.04-3.34-5.14-2.16-2.09-5.14-3.21-2.98-1.11-6.52-1.11-3.66 0-6.61 1.21t-5.05 3.37q-2.09 2.17-3.2 5.15-1.12 2.98-1.12 6.51Zm-7.92 66.29 29.41-36.75q1.11-1.37 2.09-2.68.98-1.31 1.9-2.62-3.27 2.1-7.2 3.18t-8.26 1.08q-4.91 0-9.63-1.71-4.71-1.7-8.38-5.14-3.67-3.44-5.93-8.51-2.26-5.08-2.26-11.89 0-6.35 2.36-11.92t6.62-9.76q4.25-4.19 10.21-6.62 5.97-2.42 13.17-2.42 7.27 0 13.07 2.29 5.79 2.29 9.89 6.42 4.09 4.13 6.29 9.89 2.19 5.77 2.19 12.64 0 4.39-.75 8.32-.76 3.93-2.13 7.57-1.38 3.63-3.34 7.1-1.97 3.47-4.39 6.88l-21.68 30.92q-1.11 1.57-3.34 2.65-2.23 1.08-5.05 1.08h-14.86Zm100.28-11.59q3.99 0 7.01-1.15 3.01-1.15 5.07-3.18 2.06-2.03 3.11-4.84 1.05-2.82 1.05-6.1 0-7.79-4.32-11.79-4.33-3.99-11.92-3.99-7.6 0-11.92 3.99-4.33 4-4.33 11.79 0 3.28 1.05 6.1 1.05 2.81 3.11 4.84 2.07 2.03 5.08 3.18 3.01 1.15 7.01 1.15Zm0-71.99q-3.61 0-6.23 1.12-2.62 1.11-4.35 2.98-1.74 1.86-2.56 4.29-.81 2.42-.81 5.1 0 2.82.68 5.47.69 2.66 2.33 4.72 1.64 2.06 4.32 3.31 2.69 1.24 6.62 1.24t6.61-1.24q2.69-1.25 4.33-3.31 1.63-2.06 2.32-4.72.69-2.65.69-5.47 0-2.68-.85-5.1-.85-2.43-2.56-4.29-1.7-1.87-4.32-2.98-2.62-1.12-6.22-1.12Zm15.98 34.19q8.64 2.82 12.77 8.62 4.13 5.79 4.13 14.18 0 6.29-2.39 11.39-2.39 5.11-6.72 8.72-4.32 3.6-10.38 5.56-6.06 1.97-13.39 1.97-7.34 0-13.4-1.97-6.06-1.96-10.38-5.56-4.32-3.61-6.71-8.72-2.39-5.1-2.39-11.39 0-8.39 4.12-14.18 4.13-5.8 12.77-8.62-6.87-2.88-10.31-8.18-3.44-5.31-3.44-12.78 0-5.37 2.19-10.02 2.2-4.65 6.13-8.09 3.93-3.44 9.4-5.37 5.47-1.93 12.02-1.93t12.02 1.93q5.47 1.93 9.4 5.37 3.93 3.44 6.12 8.09t2.19 10.02q0 7.47-3.43 12.78-3.44 5.3-10.32 8.18Zm60 37.8q3.99 0 7.01-1.15 3.01-1.15 5.07-3.18 2.07-2.03 3.11-4.84 1.05-2.82 1.05-6.1 0-7.79-4.32-11.79-4.33-3.99-11.92-3.99-7.6 0-11.92 3.99-4.33 4-4.33 11.79 0 3.28 1.05 6.1 1.05 2.81 3.11 4.84 2.07 2.03 5.08 3.18 3.01 1.15 7.01 1.15Zm0-71.99q-3.61 0-6.23 1.12-2.62 1.11-4.35 2.98-1.74 1.86-2.56 4.29-.81 2.42-.81 5.1 0 2.82.68 5.47.69 2.66 2.33 4.72 1.64 2.06 4.32 3.31 2.69 1.24 6.62 1.24t6.61-1.24q2.69-1.25 4.33-3.31 1.63-2.06 2.32-4.72.69-2.65.69-5.47 0-2.68-.85-5.1-.85-2.43-2.56-4.29-1.7-1.87-4.32-2.98-2.62-1.12-6.22-1.12Zm15.98 34.19q8.64 2.82 12.77 8.62 4.13 5.79 4.13 14.18 0 6.29-2.39 11.39-2.39 5.11-6.72 8.72-4.32 3.6-10.38 5.56-6.06 1.97-13.39 1.97-7.34 0-13.4-1.97-6.06-1.96-10.38-5.56-4.32-3.61-6.71-8.72-2.39-5.1-2.39-11.39 0-8.39 4.12-14.18 4.13-5.8 12.78-8.62-6.88-2.88-10.32-8.18-3.44-5.31-3.44-12.78 0-5.37 2.19-10.02 2.2-4.65 6.13-8.09 3.93-3.44 9.4-5.37 5.47-1.93 12.02-1.93t12.02 1.93q5.47 1.93 9.4 5.37 3.93 3.44 6.12 8.09t2.19 10.02q0 7.47-3.43 12.78-3.44 5.3-10.32 8.18Zm122.75 27.71-8.58 8.45-22.21-22.21-22.4 22.34-8.58-8.45 22.4-22.47-21.35-21.35 8.51-8.51 21.36 21.35 21.22-21.22 8.64 8.51-21.28 21.29 22.27 22.27Zm101.19-73.03-28.1 34.38-3.27 4.07q2.75-1.38 5.93-2.13 3.17-.76 6.84-.76 5.37 0 10.45 1.77 5.08 1.77 8.94 5.34 3.86 3.57 6.22 8.88 2.36 5.3 2.36 12.37 0 6.62-2.42 12.42-2.43 5.79-6.82 10.12-4.38 4.32-10.57 6.81-6.19 2.49-13.66 2.49-7.6 0-13.62-2.43-6.03-2.42-10.29-6.77-4.26-4.36-6.52-10.48-2.25-6.13-2.25-13.6 0-6.68 2.71-13.72 2.72-7.04 8.42-14.64l22.6-30.32q1.18-1.58 3.44-2.69 2.26-1.11 5.2-1.11h14.41Zm-24.43 82.53q3.87 0 7.11-1.31t5.57-3.67q2.32-2.36 3.63-5.54 1.31-3.17 1.31-6.91 0-4.06-1.24-7.3-1.25-3.24-3.54-5.5t-5.5-3.44q-3.21-1.18-7.08-1.18-3.86 0-7 1.31-3.15 1.31-5.38 3.64-2.22 2.32-3.47 5.5-1.24 3.17-1.24 6.84 0 3.93 1.08 7.18 1.08 3.24 3.21 5.53t5.27 3.57q3.15 1.28 7.27 1.28Zm100.41-82.53-28.1 34.38-3.27 4.07q2.75-1.38 5.93-2.13 3.17-.76 6.84-.76 5.37 0 10.45 1.77 5.07 1.77 8.94 5.34 3.86 3.57 6.22 8.88 2.36 5.3 2.36 12.37 0 6.62-2.42 12.42-2.43 5.79-6.82 10.12-4.38 4.32-10.57 6.81-6.19 2.49-13.66 2.49-7.6 0-13.62-2.43-6.03-2.42-10.29-6.77-4.26-4.36-6.52-10.48-2.25-6.13-2.25-13.6 0-6.68 2.71-13.72 2.72-7.04 8.42-14.64l22.6-30.32q1.18-1.58 3.44-2.69 2.26-1.11 5.2-1.11h14.41Zm-24.43 82.53q3.87 0 7.11-1.31t5.57-3.67q2.32-2.36 3.63-5.54 1.31-3.17 1.31-6.91 0-4.06-1.24-7.3-1.25-3.24-3.54-5.5t-5.5-3.44q-3.21-1.18-7.08-1.18-3.86 0-7 1.31-3.15 1.31-5.38 3.64-2.22 2.32-3.47 5.5-1.24 3.17-1.24 6.84 0 3.93 1.08 7.18 1.08 3.24 3.21 5.53t5.27 3.57q3.15 1.28 7.27 1.28Zm110.83-35.18q0 12.38-2.65 21.52-2.66 9.14-7.34 15.1-4.68 5.96-11.07 8.87-6.39 2.92-13.79 2.92-7.4 0-13.72-2.92-6.32-2.91-10.97-8.87-4.65-5.96-7.27-15.1-2.62-9.14-2.62-21.52 0-12.44 2.62-21.55 2.62-9.1 7.27-15.06 4.65-5.96 10.97-8.88 6.32-2.91 13.72-2.91t13.79 2.91q6.39 2.92 11.07 8.88 4.68 5.96 7.34 15.06 2.65 9.11 2.65 21.55Zm-16.7 0q0-10.28-1.51-17.03-1.51-6.74-4.03-10.74-2.52-3.99-5.8-5.6-3.27-1.6-6.81-1.6-3.47 0-6.71 1.6-3.24 1.61-5.73 5.6-2.49 4-3.97 10.74-1.47 6.75-1.47 17.03 0 10.29 1.47 17.03 1.48 6.75 3.97 10.75 2.49 3.99 5.73 5.6 3.24 1.6 6.71 1.6 3.54 0 6.81-1.6 3.28-1.61 5.8-5.6 2.52-4 4.03-10.75 1.51-6.74 1.51-17.03Z"/></svg>